<?xml version="1.0" standalone="no"?>
<!DOCTYPE svg PUBLIC "-//W3C//DTD SVG 20010904//EN"
 "http://www.w3.org/TR/2001/REC-SVG-20010904/DTD/svg10.dtd">
<svg version="1.0" xmlns="http://www.w3.org/2000/svg"
 width="1024.000000pt" height="1024.000000pt" viewBox="0 0 1024.000000 1024.000000"
 preserveAspectRatio="xMidYMid meet">
<metadata>
Created by potrace 1.16, written by Peter Selinger 2001-2019
</metadata>
<g transform="translate(0.000000,1024.000000) scale(0.100000,-0.100000)"
fill="#000000" stroke="none">
<path d="M5595 9499 c-4 -6 -14 -8 -22 -5 -9 4 -11 2 -6 -7 12 -20 15 -60 3
-52 -5 3 -10 13 -10 21 0 8 -4 13 -10 9 -14 -8 -10 -96 4 -89 6 3 3 -1 -6 -8
-15 -13 -15 -15 1 -25 11 -7 23 -7 33 -2 11 6 19 5 23 -1 3 -5 -3 -10 -14 -10
-13 0 -21 -7 -21 -17 0 -15 -1 -15 -19 1 -18 16 -19 16 -19 -11 0 -15 5 -33
10 -40 5 -7 7 -16 4 -21 -4 -7 -12 -64 -18 -122 0 -3 0 -15 1 -27 1 -25 21
-32 21 -8 0 8 5 15 11 15 6 0 9 -6 6 -14 -3 -8 -1 -17 6 -20 7 -2 3 -5 -8 -5
-17 -1 -17 -3 -5 -11 8 -5 10 -10 5 -10 -6 0 -16 5 -23 12 -9 9 -12 7 -12 -11
0 -15 4 -20 13 -15 9 6 9 4 1 -7 -14 -18 -25 -61 -14 -54 5 3 12 1 15 -5 4 -6
1 -9 -6 -8 -8 2 -13 -15 -15 -54 -2 -32 0 -57 4 -57 19 3 25 -2 12 -11 -13 -8
-12 -11 5 -24 20 -15 20 -15 -2 -16 -20 0 -21 -3 -13 -26 12 -31 12 -37 2 -30
-10 6 -9 -245 1 -261 5 -7 4 -13 -1 -13 -12 0 -4 -39 11 -58 7 -9 6 -11 -7 -6
-19 7 -19 8 -7 -34 6 -21 6 -32 0 -32 -6 0 -9 -29 -8 -72 1 -40 -1 -72 -5 -71
-17 4 -24 11 -53 53 -17 25 -47 62 -67 84 -20 21 -36 40 -36 42 0 11 -86 79
-97 78 -8 -1 -12 1 -9 4 8 8 -34 52 -50 52 -6 0 -17 7 -24 15 -7 8 -18 15 -26
15 -7 0 -23 4 -36 9 -13 5 -26 9 -30 10 -4 1 -21 6 -38 11 -17 5 -32 5 -35 0
-3 -5 -12 -7 -20 -3 -42 16 -136 -52 -138 -100 -1 -15 -6 -27 -11 -27 -5 0 -1
-9 9 -20 10 -11 15 -23 12 -27 -4 -3 -7 0 -7 7 0 9 -3 10 -9 5 -14 -15 -15
-67 -2 -98 6 -16 11 -33 11 -38 0 -5 3 -8 8 -8 19 3 25 -2 12 -11 -10 -6 -11
-10 -2 -10 18 0 53 -38 42 -45 -15 -10 -12 -25 6 -25 8 0 13 -4 10 -9 -7 -11
69 -81 89 -81 8 0 15 -5 15 -10 0 -6 12 -16 28 -23 15 -6 33 -18 41 -25 8 -8
22 -11 33 -9 10 3 16 1 13 -3 -3 -5 16 -16 42 -25 27 -9 59 -22 73 -28 14 -6
34 -11 45 -12 62 -5 100 -27 127 -74 l26 -47 -35 -90 c-20 -49 -46 -123 -59
-164 -39 -127 -73 -221 -85 -236 -7 -8 -9 -17 -6 -20 3 -4 0 -13 -8 -20 -7 -8
-15 -19 -17 -25 -3 -8 -25 -7 -79 5 -41 10 -80 16 -85 15 -5 -2 -42 3 -82 10
-69 12 -257 11 -307 -2 -127 -32 -199 -63 -256 -108 -46 -36 -46 -52 0 -18 29
22 32 22 48 6 9 -9 14 -20 10 -24 -4 -3 -13 1 -20 11 -12 16 -15 15 -42 -8
-17 -15 -35 -24 -41 -22 -14 5 -66 -48 -133 -138 -52 -70 -61 -91 -38 -94 6
-1 28 -4 47 -7 l35 -4 -33 8 c-19 5 -39 14 -45 21 -9 10 -8 12 5 7 13 -4 15
-2 11 10 -4 9 -2 14 3 10 6 -3 16 -1 24 5 12 8 11 9 -3 4 -12 -4 -17 -2 -15 6
3 7 11 13 19 13 8 0 14 7 14 15 0 16 38 70 49 70 12 0 5 -21 -14 -40 -19 -19
-19 -20 11 -16 33 4 46 12 35 23 -4 4 -12 1 -17 -7 -9 -12 -10 -12 -5 3 3 10
6 25 6 33 0 8 6 11 15 8 9 -4 15 0 15 10 0 18 -15 22 -25 6 -3 -5 -11 -10 -17
-10 -6 0 -3 9 7 20 12 14 25 17 45 13 15 -3 36 0 47 6 15 10 12 11 -17 6 -26
-5 -31 -4 -20 4 8 6 25 11 38 11 13 0 20 4 17 10 -11 18 12 10 30 -10 18 -20
18 -21 -1 -36 -18 -14 -18 -15 4 -4 15 7 22 8 22 0 0 -6 12 -1 28 10 36 27
125 57 206 70 70 11 303 -2 368 -21 18 -5 45 -9 60 -9 16 0 28 -2 28 -4 0 -8
-83 -188 -129 -279 -27 -53 -52 -115 -56 -136 -5 -32 -12 -41 -33 -46 -26 -7
-26 -7 -5 -15 17 -7 23 -20 28 -57 3 -26 12 -59 18 -73 15 -33 57 -85 57 -70
0 6 4 9 10 5 15 -10 -1 -35 -23 -35 -11 0 -18 -3 -15 -6 3 -3 23 -2 43 2 30 5
43 16 66 52 34 55 37 90 8 126 -28 35 -22 100 13 147 14 19 40 70 57 114 18
44 44 103 57 132 13 28 24 56 24 61 0 30 29 30 150 -3 171 -46 262 -76 478
-159 52 -20 96 -36 98 -36 2 0 -5 9 -16 20 -22 22 -26 40 -10 40 6 0 10 -5 10
-11 0 -8 4 -8 15 1 8 6 22 10 32 7 14 -4 13 -5 -4 -6 -25 -1 -28 -8 -13 -31 8
-13 10 -13 10 2 0 23 24 13 38 -15 6 -12 11 -16 11 -9 1 6 6 12 11 12 6 0 9
-6 8 -12 -2 -7 5 -12 16 -11 11 0 14 -3 9 -8 -5 -5 -23 -5 -43 1 -75 22 -28
-3 132 -68 4 -2 8 3 8 12 0 10 -6 13 -17 10 -15 -5 -16 -4 -3 5 11 8 18 7 26
-4 15 -19 28 -19 20 0 -3 8 -1 15 4 15 6 0 10 -12 10 -27 0 -26 11 -33 122
-88 67 -33 180 -93 251 -132 71 -40 134 -70 140 -66 5 3 7 1 4 -4 -8 -12 20
-26 34 -17 5 3 9 -2 9 -10 0 -15 12 -21 33 -17 5 1 6 -3 3 -8 -10 -16 12 -23
35 -11 15 9 24 9 32 1 8 -8 6 -11 -6 -11 -9 0 -17 -4 -17 -9 0 -10 107 -91
120 -91 5 0 18 -9 29 -21 11 -12 24 -18 30 -15 7 4 8 1 5 -8 -4 -12 0 -16 17
-16 12 0 19 -3 16 -7 -11 -10 30 -34 47 -27 9 3 20 -3 28 -15 7 -12 17 -21 23
-21 10 0 24 -15 45 -50 8 -12 11 -12 27 3 18 15 19 15 19 -3 0 -37 -63 -19
-79 23 -3 9 -11 17 -16 17 -5 0 -3 -14 6 -30 8 -17 19 -27 25 -23 7 4 9 0 5
-9 -3 -10 4 -25 19 -39 27 -25 33 -16 7 13 -15 17 -15 18 0 18 10 0 17 -5 17
-11 0 -8 4 -8 14 0 11 9 15 8 20 -4 3 -9 2 -14 -3 -11 -5 3 -11 -4 -14 -16 -4
-15 2 -29 21 -47 15 -14 27 -32 28 -38 2 -30 5 -33 32 -34 16 -1 20 -3 10 -6
-21 -5 -23 -19 -6 -29 6 -4 14 -2 16 4 7 22 18 12 17 -15 0 -14 6 -28 13 -30
6 -3 12 0 12 7 0 6 -5 8 -12 4 -7 -4 -8 -3 -4 4 4 6 13 9 22 5 13 -5 13 -7 -1
-23 -21 -24 -19 -33 8 -27 12 4 29 1 37 -4 12 -9 12 -10 -3 -5 -26 8 -38 -2
-27 -22 27 -51 91 -218 110 -290 12 -45 26 -80 30 -77 4 2 5 -7 2 -20 -2 -14
0 -31 6 -38 5 -6 12 -30 15 -52 3 -22 17 -103 31 -180 13 -77 28 -161 32 -187
5 -40 10 -48 28 -49 17 -1 18 -2 3 -6 -12 -3 -17 -12 -15 -26 2 -18 9 -22 33
-20 l30 2 -28 -10 c-28 -11 -28 -11 -21 -78 7 -67 14 -93 14 -51 0 34 12 17
16 -22 1 -18 0 -27 -3 -20 -2 6 -8 12 -12 12 -10 0 -1 -98 11 -125 6 -14 7
-10 3 16 -6 37 16 72 30 49 3 -5 1 -10 -6 -10 -7 0 -9 -10 -6 -30 4 -19 1 -34
-8 -44 -15 -15 -21 -41 -7 -33 4 3 7 -20 7 -51 0 -48 12 -208 20 -277 1 -11 3
-44 4 -72 1 -44 4 -53 19 -53 10 0 23 5 30 12 9 9 12 9 12 0 0 -7 -12 -15 -27
-18 l-28 -6 0 -206 c-1 -280 -26 -396 -111 -508 -25 -32 -31 -50 -14 -39 5 3
10 1 10 -5 0 -6 -6 -10 -12 -8 -7 1 -42 -26 -78 -60 -35 -34 -89 -79 -120 -99
-30 -20 -67 -45 -82 -55 -34 -23 -228 -119 -440 -219 -102 -48 -153 -76 -145
-82 7 -5 3 -6 -10 -2 -14 4 -38 -1 -60 -13 -21 -11 -51 -25 -66 -31 -24 -10
-26 -13 -16 -32 8 -15 8 -24 0 -32 -8 -8 -11 -6 -11 6 0 22 -20 22 -21 0 -1
-10 -1 -21 -1 -25 1 -3 -5 -9 -13 -12 -9 -3 -15 1 -15 9 0 8 5 15 10 15 6 0
10 5 10 10 0 15 -16 12 -34 -5 -8 -8 -17 -11 -20 -6 -3 4 12 16 34 26 22 10
40 21 40 26 0 4 -21 -3 -47 -15 -27 -13 -97 -43 -157 -67 -59 -24 -103 -45
-98 -47 6 -2 32 6 57 17 27 12 45 16 43 9 -2 -6 -12 -12 -22 -14 -10 -1 -24
-8 -30 -15 -8 -9 -6 -10 9 -5 18 6 19 5 3 -7 -10 -8 -15 -17 -11 -20 3 -4 1
-7 -5 -7 -7 0 -12 5 -12 10 0 6 -12 9 -27 9 -26 -2 -27 -2 -4 -6 18 -4 21 -7
11 -13 -8 -5 -22 -4 -32 1 -23 12 -24 0 -1 -16 14 -11 15 -15 4 -29 -13 -16
-44 -17 -58 -2 -5 5 4 6 20 4 30 -6 35 5 13 28 -17 17 -30 19 -20 2 5 -7 3 -8
-6 -3 -8 5 -18 1 -27 -10 -12 -18 -13 -18 -13 3 0 12 4 22 9 22 14 0 83 31 79
35 -2 3 -50 -14 -106 -37 -56 -22 -100 -43 -98 -45 2 -2 21 3 41 11 44 19 65
20 65 5 0 -5 -4 -8 -8 -5 -5 3 -20 -1 -35 -9 -15 -8 -27 -11 -27 -8 0 3 -7 0
-15 -7 -8 -7 -15 -9 -15 -5 0 4 -7 2 -15 -5 -12 -10 -18 -10 -30 0 -11 9 -19
9 -35 -3 -12 -8 -17 -18 -12 -21 5 -3 12 -2 16 2 4 4 20 7 34 8 15 0 41 4 57
9 29 7 29 7 10 -8 -11 -9 -15 -17 -7 -17 6 0 12 -5 12 -11 0 -5 -4 -8 -9 -5
-5 3 -12 -5 -15 -19 -4 -14 -13 -25 -22 -25 -13 0 -12 5 5 26 20 26 20 44 -1
44 -5 0 -8 -7 -5 -14 4 -9 -2 -17 -13 -21 -10 -3 -24 -13 -32 -22 -11 -15 -11
-16 5 -10 11 4 16 3 12 -3 -9 -14 49 -12 63 2 7 7 12 8 12 2 0 -10 -47 -64
-57 -64 -3 0 2 9 12 20 16 17 16 20 2 20 -8 0 -18 -6 -21 -12 -5 -11 -7 -11
-12 0 -9 18 -20 15 -20 -7 0 -11 5 -17 11 -13 5 3 4 -2 -4 -11 -11 -14 -17
-15 -28 -6 -10 9 -11 14 -2 20 7 4 9 14 6 24 -4 9 -3 14 3 10 6 -3 10 -2 10 3
0 19 -63 52 -77 41 -7 -6 -17 -8 -23 -4 -5 3 -10 1 -10 -5 0 -7 -6 -10 -14 -7
-8 3 -16 3 -18 -1 -5 -12 -78 -45 -85 -39 -8 8 -12 6 67 44 69 33 120 51 107
37 -4 -4 5 -15 19 -25 21 -13 30 -14 39 -6 16 15 9 27 -15 27 -10 0 -23 6 -27
14 -6 11 -21 8 -78 -16 -38 -17 -108 -44 -154 -62 -46 -17 -76 -32 -68 -34 9
-2 29 4 46 12 16 9 33 16 36 16 12 0 -1 -25 -13 -26 -7 -1 -19 -2 -27 -3 -8 0
-15 -8 -15 -17 0 -8 -4 -12 -10 -9 -5 3 -10 -3 -10 -14 0 -11 8 -25 18 -30 16
-10 15 -12 -9 -15 -7 0 -13 -14 -15 -29 -4 -42 -23 -60 -53 -52 -14 4 -42 9
-61 12 -19 3 -39 12 -44 20 -7 13 -10 13 -17 2 -5 -8 -9 -18 -9 -24 0 -5 5 -3
10 5 9 14 11 12 14 -20 0 -8 10 -16 21 -18 20 -3 20 -3 1 13 -17 12 -17 15 -4
15 9 0 18 -6 21 -12 3 -10 8 -10 17 -2 6 7 21 9 33 6 17 -4 12 -9 -28 -22 -46
-16 -52 -16 -70 -1 -20 16 -20 16 0 -8 15 -17 16 -22 5 -21 -32 5 -61 0 -55
-10 3 -6 1 -10 -4 -10 -6 0 -11 6 -12 13 0 6 -4 3 -8 -8 -5 -11 -12 -20 -17
-20 -5 -1 -24 -9 -42 -18 -24 -13 -37 -15 -52 -7 -16 9 -18 8 -13 -6 5 -14 1
-15 -28 -9 -49 10 -54 23 -12 30 10 1 17 8 15 15 -1 6 2 9 7 6 5 -4 12 -2 16
4 4 6 11 8 16 5 5 -4 9 -1 9 5 0 8 6 8 20 0 15 -8 27 -7 50 5 30 16 42 32 16
22 -7 -3 -19 0 -26 6 -10 9 -12 8 -7 -5 8 -22 -12 -35 -24 -17 -6 9 -3 18 6
25 13 10 13 13 1 23 -11 9 -15 9 -19 -1 -4 -8 -6 -7 -6 5 -1 20 -5 21 -32 7
-10 -6 -19 -18 -19 -28 0 -14 -2 -15 -10 -2 -5 8 -13 11 -17 6 -4 -4 1 -14 12
-22 12 -9 21 -11 23 -4 2 5 8 10 14 10 5 0 8 -6 5 -12 -2 -7 -17 -13 -34 -13
-22 -1 -29 3 -25 13 4 11 -1 13 -19 7 -13 -4 -28 -11 -34 -16 -14 -14 -25 -11
-19 6 4 8 10 12 15 9 5 -3 9 0 9 5 0 6 6 11 14 11 7 0 20 8 27 17 12 15 12 16
-6 9 -89 -32 -135 -52 -135 -59 0 -5 5 -5 12 -1 7 4 8 3 4 -4 -4 -7 -14 -12
-22 -12 -14 0 -18 -12 -15 -39 2 -7 -2 -10 -8 -6 -17 10 -13 42 5 49 9 4 15 8
12 11 -2 2 -59 -17 -127 -44 -98 -38 -118 -49 -98 -53 15 -3 28 0 31 7 2 7 14
15 26 18 l22 6 -23 -25 c-15 -16 -33 -24 -56 -24 -20 0 -32 -4 -28 -10 3 -5 0
-7 -8 -4 -8 3 -21 -2 -30 -10 -9 -9 -22 -16 -29 -16 -7 0 -25 -8 -38 -17 -20
-13 -22 -14 -13 -2 7 9 9 20 5 24 -4 5 -2 5 5 1 6 -3 14 -2 18 4 3 5 15 10 26
10 10 0 19 4 19 9 0 5 10 11 22 14 12 4 20 9 17 12 -3 3 -64 -17 -135 -43 -71
-27 -199 -73 -284 -102 -85 -28 -157 -54 -159 -56 -2 -1 16 -2 39 -1 25 1 45
-3 47 -9 3 -8 -8 -11 -31 -10 -19 1 -34 -3 -33 -8 1 -5 -15 -14 -35 -19 -21
-5 -38 -15 -38 -22 0 -11 5 -11 28 1 31 16 66 19 57 4 -3 -5 -1 -10 4 -10 6 0
11 9 11 21 0 11 5 17 10 14 6 -4 7 -11 4 -17 -7 -11 -3 -10 54 8 13 4 22 -2
30 -18 7 -13 10 -15 8 -6 -4 12 0 18 10 18 8 0 17 7 21 16 3 8 12 13 19 10 8
-3 11 0 8 8 -5 14 -44 10 -44 -3 0 -4 -16 -8 -35 -8 -32 0 -33 1 -15 14 21 15
27 43 9 43 -5 0 -8 -4 -4 -9 9 -15 -13 -23 -32 -12 -16 8 -15 11 11 21 21 8
32 7 42 -1 11 -9 20 -7 39 5 14 9 25 21 25 27 0 6 9 8 21 4 13 -4 19 -3 15 3
-5 8 104 52 130 52 9 0 -90 -48 -104 -50 -4 -1 -11 -8 -15 -15 -4 -8 -26 -19
-48 -25 -22 -6 -37 -15 -34 -20 4 -6 14 -6 26 0 10 6 18 7 17 3 -2 -4 0 -9 5
-10 18 -7 26 -2 21 15 -5 14 -4 14 4 2 8 -10 8 -18 1 -27 -6 -7 -8 -17 -4 -23
11 -17 22 -11 21 12 -1 13 6 24 16 26 11 2 15 -3 13 -15 -4 -27 5 -35 21 -18
18 17 34 20 34 5 0 -14 -41 -29 -59 -22 -9 3 -12 1 -7 -6 4 -7 -4 -14 -21 -18
-15 -4 -33 -11 -39 -16 -6 -4 -20 -5 -29 -1 -14 5 -16 3 -10 -7 6 -10 4 -12
-7 -7 -9 3 -21 0 -28 -6 -10 -9 -14 -9 -17 0 -3 9 -13 6 -33 -9 -16 -12 -36
-18 -45 -14 -9 3 -13 2 -10 -4 9 -14 -8 -12 -25 3 -12 10 -12 9 -1 -5 10 -14
9 -17 -10 -20 -12 -2 -24 -9 -26 -15 -3 -9 7 -8 34 3 21 9 61 23 88 31 91 26
264 96 259 105 -3 4 0 8 5 8 6 0 11 -5 11 -11 0 -6 16 -2 36 10 19 12 43 21
53 21 10 0 35 7 54 15 26 11 35 21 34 35 -1 13 -6 19 -15 15 -7 -3 -17 -5 -20
-5 -4 0 -1 -4 7 -9 9 -6 0 -13 -32 -24 -25 -8 -48 -13 -51 -9 -3 3 -6 0 -6 -6
0 -6 -7 -9 -15 -5 -10 3 -15 1 -13 -8 2 -7 -5 -15 -16 -17 -10 -2 -16 0 -12 6
4 6 -3 8 -16 5 -23 -4 -23 -4 -3 12 19 17 19 17 -10 10 -16 -3 -31 -11 -33
-16 -2 -5 -8 -9 -14 -9 -6 0 -3 9 7 20 10 11 26 20 37 20 10 0 18 5 18 11 0 6
-10 8 -22 5 l-23 -6 23 11 c12 7 22 16 22 21 0 5 -10 7 -22 3 -22 -5 -22 -5 1
9 27 15 64 11 39 -5 -11 -7 -10 -11 2 -19 8 -5 21 -8 28 -5 9 3 11 -1 7 -16
-6 -18 -5 -19 14 -7 12 7 16 15 10 19 -16 10 5 20 25 13 10 -4 30 5 50 20 19
14 41 23 50 20 11 -4 13 0 10 18 -2 13 -2 17 2 11 8 -18 27 -16 20 2 -3 8 -1
15 4 15 6 0 10 -6 10 -14 0 -10 10 -14 34 -13 19 1 33 4 31 5 -2 2 10 16 26
30 31 28 32 62 3 62 -12 0 -11 4 3 18 22 23 53 35 53 22 0 -9 -14 -14 -32 -11
-10 1 -10 -12 -2 -33 3 -9 10 -16 16 -16 5 0 6 6 2 13 -5 9 -4 9 6 0 10 -9 8
-16 -9 -35 -13 -13 -17 -24 -11 -26 6 -2 20 8 31 22 11 14 26 26 34 26 7 0 15
5 17 10 2 6 11 -3 21 -20 10 -16 14 -30 8 -30 -5 0 -13 10 -16 21 -4 12 -10
17 -14 12 -3 -5 -14 -12 -23 -16 -10 -3 -18 -13 -18 -22 0 -8 -5 -15 -11 -15
-5 0 -7 -6 -3 -12 4 -7 4 -10 -1 -6 -4 4 -23 1 -43 -8 -19 -8 -37 -12 -40 -9
-3 3 -11 -4 -19 -15 -8 -11 -19 -20 -26 -20 -8 0 -8 3 1 12 18 18 14 26 -12
24 -22 -1 -23 -2 -7 -26 14 -21 14 -23 1 -18 -9 3 -24 0 -35 -8 -31 -23 0 -16
93 20 48 18 97 37 110 40 24 8 29 22 10 29 -9 3 -7 9 7 20 11 8 22 13 25 11 2
-3 -2 -9 -9 -13 -7 -5 -10 -14 -6 -20 7 -13 27 -9 90 19 22 10 58 24 80 30 22
7 58 21 80 30 22 10 117 48 210 85 94 37 172 69 174 71 3 3 -1 10 -7 16 -9 9
-12 9 -12 -2 0 -7 -3 -10 -7 -6 -4 4 3 15 16 25 13 10 24 28 24 42 0 19 5 24
27 25 19 1 27 -3 24 -11 -3 -7 -12 -12 -21 -11 -9 0 -18 -5 -20 -12 -6 -15 23
-6 54 19 19 14 20 18 8 23 -8 3 -15 10 -15 16 0 6 7 4 16 -4 8 -9 20 -16 25
-16 5 0 9 -4 9 -10 0 -5 -7 -10 -15 -10 -9 0 -20 -11 -25 -25 -5 -14 -15 -25
-22 -25 -9 0 -9 3 2 10 8 5 12 12 8 15 -3 4 -16 -4 -28 -17 -13 -13 -19 -17
-15 -9 5 9 3 12 -5 9 -8 -2 -15 -9 -17 -15 -8 -23 26 -19 97 10 87 36 86 35
76 44 -4 4 -16 1 -28 -6 -27 -17 -58 -22 -58 -10 0 6 6 9 13 6 6 -2 17 5 24
17 7 12 12 16 13 9 0 -7 7 -10 15 -7 8 4 22 1 29 -5 11 -10 23 -8 53 6 21 10
64 27 97 38 41 14 61 27 67 42 5 13 11 23 13 23 3 0 3 -7 -1 -16 -7 -20 11
-15 109 27 36 16 69 29 72 29 3 0 100 41 216 90 116 50 213 90 217 90 3 0 24
9 47 19 23 11 97 45 166 76 132 60 371 178 430 212 89 51 110 66 110 74 0 5 4
8 9 7 14 -5 141 83 191 132 27 26 45 52 42 60 -3 8 -1 12 3 8 10 -10 82 71 95
107 7 17 20 48 31 70 48 100 65 210 71 465 3 158 -18 557 -37 705 -2 17 -7 53
-10 80 -3 28 -7 61 -10 75 -2 14 -7 52 -9 85 -3 33 -10 85 -16 115 -6 30 -13
75 -16 100 -2 25 -10 72 -18 105 -8 33 -21 96 -30 140 -9 44 -28 125 -41 180
-14 55 -27 112 -30 128 -3 15 -12 41 -20 57 -8 16 -15 32 -14 35 3 16 -18 79
-47 144 -19 40 -34 79 -34 85 0 19 -128 216 -185 286 -78 95 -95 111 -107 104
-6 -4 -8 -3 -4 4 5 9 -30 44 -149 147 -16 14 -48 38 -69 53 -22 15 -53 39 -70
55 -17 15 -36 27 -42 27 -7 0 -14 3 -16 8 -3 8 -84 62 -93 62 -3 0 -31 17 -63
39 -108 72 -387 215 -402 206 -6 -3 -10 -2 -10 4 0 6 -19 19 -42 29 -55 24
-133 102 -221 222 -85 114 -117 151 -128 144 -5 -3 -6 3 -2 12 4 12 3 15 -5
10 -8 -5 -10 -2 -6 8 3 9 1 16 -5 16 -6 0 -11 7 -11 15 0 9 -7 18 -15 21 -8 4
-15 11 -15 16 0 14 -81 128 -91 128 -5 0 -8 4 -7 9 4 11 -44 90 -54 91 -5 0
-8 5 -8 11 0 6 -17 36 -37 67 -85 127 -97 157 -83 205 11 37 11 37 65 37 47 0
54 2 48 18 -5 15 -4 14 9 -2 15 -20 12 -20 148 1 19 2 44 12 54 21 15 14 18
14 12 2 -6 -13 -5 -13 6 0 7 9 21 14 30 12 13 -2 16 1 12 12 -4 11 0 14 15 11
11 -2 27 3 35 11 8 8 20 14 26 14 7 0 9 7 6 16 -4 11 -2 15 8 11 11 -4 13 0
10 17 -2 15 1 24 9 23 32 -1 48 4 42 13 -3 6 -2 10 4 10 15 0 41 82 38 122 -2
30 -6 38 -22 39 -17 0 -18 1 -3 7 16 6 15 11 -7 49 -14 23 -39 48 -55 57 -17
8 -28 10 -25 5 4 -5 1 -9 -4 -9 -6 0 -11 7 -11 15 0 11 -11 15 -41 15 -35 0
-40 -3 -35 -17 6 -17 5 -17 -7 -1 -13 17 -67 14 -67 -4 0 -5 -10 -6 -21 -3
-15 5 -19 4 -15 -4 6 -10 -6 -15 -26 -12 -5 0 -8 -3 -8 -8 0 -8 -37 -24 -52
-22 -4 0 -16 -10 -26 -24 -11 -13 -22 -21 -26 -18 -3 3 -6 2 -6 -4 0 -6 -10
-13 -21 -16 -14 -4 -20 -11 -16 -21 4 -9 1 -13 -7 -10 -7 3 -37 -18 -67 -46
-30 -27 -60 -48 -67 -45 -8 3 -16 5 -18 5 -2 0 -4 32 -4 71 0 50 -3 68 -12 63
-7 -5 -8 -3 -2 7 13 21 15 329 2 329 -7 0 -7 4 -1 13 14 18 15 70 1 61 -7 -5
-8 -3 -2 7 12 19 13 161 1 177 -6 8 -6 12 2 12 17 0 10 52 -9 68 -8 8 -9 11
-2 7 6 -3 12 0 13 7 0 7 2 23 5 36 4 25 -10 60 -35 80 -14 11 -13 12 5 3 20
-10 22 -7 26 27 3 21 0 40 -6 45 -8 5 -6 10 4 17 13 8 12 10 -4 10 -16 0 -16
2 -6 16 8 8 14 40 14 70 1 47 -1 54 -16 51 -9 -3 -19 2 -22 10 -3 8 -1 11 4 8
6 -3 10 1 10 9 0 9 5 16 10 16 6 0 10 9 10 21 0 19 -1 19 -16 5 -21 -22 -27
-20 -14 4 6 11 15 20 19 20 5 0 9 19 9 43 0 23 -3 35 -6 27 -7 -20 -34 -40
-45 -33 -5 3 2 17 15 32 12 14 16 20 8 14 -8 -7 -20 -13 -27 -13 -11 0 -11 4
-1 20 7 11 19 18 26 15 7 -3 10 0 7 5 -8 13 -22 13 -30 -1z m-485 -1104 c45
-14 120 -79 180 -156 19 -24 40 -48 47 -52 7 -4 13 -12 13 -17 0 -6 16 -30 35
-56 35 -45 47 -83 23 -67 -7 4 -17 8 -23 10 -59 12 -173 51 -225 76 -84 40
-186 142 -197 195 -4 20 -6 41 -4 46 1 5 -4 13 -11 17 -10 7 -9 9 5 9 9 0 17
4 17 10 0 5 15 13 33 18 24 7 38 5 57 -8 14 -10 36 -21 50 -25z m1044 -168
c22 -20 24 -28 16 -61 -5 -21 -12 -42 -17 -45 -79 -68 -116 -84 -229 -105
-131 -24 -181 -7 -112 39 24 16 60 46 81 67 21 21 63 52 93 69 30 17 54 35 54
41 0 6 6 8 14 5 11 -4 50 2 73 12 1 1 13 -9 27 -22z m-539 -487 c-3 -6 2 -22
13 -38 11 -15 36 -58 57 -97 20 -38 40 -72 44 -75 4 -3 22 -30 39 -60 17 -30
41 -66 52 -80 11 -14 51 -70 89 -125 37 -55 73 -99 80 -97 7 1 10 -2 6 -8 -6
-10 69 -116 112 -157 31 -30 16 -36 -34 -13 -23 10 -83 33 -135 51 -51 17 -98
36 -105 41 -7 6 -16 7 -22 4 -5 -3 -11 -2 -13 2 -1 5 -28 16 -58 25 -73 21
-188 55 -277 79 -66 19 -71 22 -60 40 10 15 9 20 -3 28 -12 8 -12 10 2 15 14
6 36 57 26 61 -2 1 4 10 13 20 9 11 24 46 34 79 9 33 33 98 51 143 19 46 31
89 27 95 -3 5 -1 7 4 4 6 -4 14 5 18 20 3 15 14 33 23 40 21 15 25 16 17 3z"/>
<path d="M5500 2228 c-118 -46 -140 -57 -140 -69 0 -8 6 -6 18 4 9 8 31 18 47
22 20 4 26 3 17 -3 -11 -7 -8 -14 13 -30 14 -12 32 -19 39 -16 8 3 16 -2 19
-10 8 -22 27 -20 27 2 0 15 2 15 11 2 8 -11 9 -7 4 18 -4 20 -3 32 4 32 6 0
11 7 11 15 0 18 12 19 28 3 6 -6 24 -13 39 -14 20 -2 24 -1 13 6 -8 5 -11 12
-8 15 4 4 23 -5 42 -20 19 -15 39 -24 44 -21 13 8 22 46 12 46 -5 0 -10 -10
-12 -22 -3 -21 -4 -21 -18 -3 -13 17 -13 18 0 11 12 -7 11 -5 -1 9 -9 9 -28
18 -42 18 -17 2 -22 5 -16 13 7 8 2 12 -16 12 -14 0 -28 -5 -32 -11 -4 -6 0
-8 10 -4 10 3 17 2 17 -3 0 -17 -18 -20 -45 -6 -17 9 -22 16 -13 19 7 2 11 7
8 9 -3 3 -39 -8 -80 -24z"/>
<path d="M2754 1511 c9 -14 -20 -32 -39 -25 -13 5 -16 3 -13 -7 5 -13 38 -14
48 -1 3 4 14 8 25 9 11 1 14 0 7 -3 -17 -8 -33 -50 -26 -68 15 -39 214 -156
214 -126 0 10 -26 20 -53 20 -16 0 -18 3 -8 9 9 6 10 11 2 15 -6 4 -11 2 -11
-4 0 -6 -4 -9 -10 -5 -5 3 -7 12 -3 20 3 8 0 15 -6 15 -6 0 -11 -7 -11 -16 0
-8 -5 -12 -10 -9 -7 4 -6 13 1 26 10 19 9 20 -11 9 -16 -9 -25 -9 -33 -1 -8 8
-5 11 10 11 12 0 25 5 28 10 4 6 14 10 23 8 20 -3 42 9 42 23 0 5 -7 9 -15 9
-8 0 -15 -4 -15 -10 0 -5 -4 -10 -9 -10 -5 0 -8 8 -7 18 0 9 -6 17 -14 17 -8
0 -15 -7 -14 -16 1 -11 -6 -14 -27 -11 -16 2 -26 8 -23 13 3 5 -2 9 -10 9 -9
0 -16 5 -16 10 0 15 16 12 30 -5 10 -12 16 -13 27 -4 8 7 12 18 9 25 -3 7 0
16 6 20 15 9 -27 25 -46 18 -8 -3 -17 -1 -21 5 -3 6 -11 11 -16 11 -6 0 -8 -4
-5 -9z"/>
</g>
</svg>
